#tb 0: 1/25
0,          0,          0,        1,   152064, 0x9f9caf3c
0,          1,          1,        1,   152064, 0x4e8e9dc4
0,          2,          2,        1,   152064, 0x7eab62be
0,          3,          3,        1,   152064, 0x79de6e48
0,          4,          4,        1,   152064, 0x6bb843f3
0,          5,          5,        1,   152064, 0xd0e96c36
0,          6,          6,        1,   152064, 0x061a9036
0,          7,          7,        1,   152064, 0x342c42ea
0,          8,          8,        1,   152064, 0x9835cfc3
0,          9,          9,        1,   152064, 0x129ed3dd
0,         10,         10,        1,   152064, 0x81413cf7
0,         11,         11,        1,   152064, 0xcd16539e
0,         12,         12,        1,   152064, 0x927728cd
0,         13,         13,        1,   152064, 0x5ebd1126
0,         14,         14,        1,   152064, 0x9ad29eb3
0,         15,         15,        1,   152064, 0x0ae5a447
0,         16,         16,        1,   152064, 0xaf275266
0,         17,         17,        1,   152064, 0x98f96209
0,         18,         18,        1,   152064, 0x5fcf241f
0,         19,         19,        1,   152064, 0x17507ee5
0,         20,         20,        1,   152064, 0xb4ad5f2d
0,         21,         21,        1,   152064, 0x02fff6da
0,         22,         22,        1,   152064, 0x8726c662
0,         23,         23,        1,   152064, 0x8ca707d5
0,         24,         24,        1,   152064, 0xe41f3946
0,         25,         25,        1,   152064, 0xc7b34d1e
0,         26,         26,        1,   152064, 0x25146571
0,         27,         27,        1,   152064, 0xeb4868f4
0,         28,         28,        1,   152064, 0xd0fe149d
0,         29,         29,        1,   152064, 0x31043d0a
0,         30,         30,        1,   152064, 0xdaf2ba1c
0,         31,         31,        1,   152064, 0xb474076c
0,         32,         32,        1,   152064, 0x0cf7f1a2
0,         33,         33,        1,   152064, 0x2e427793
0,         34,         34,        1,   152064, 0x08d9a655
0,         35,         35,        1,   152064, 0x79bc8fc9
0,         36,         36,        1,   152064, 0xb9871e5c
0,         37,         37,        1,   152064, 0xca1246df
0,         38,         38,        1,   152064, 0x08c8d524
0,         39,         39,        1,   152064, 0xb9be5ecb
0,         40,         40,        1,   152064, 0x807f87f0
0,         41,         41,        1,   152064, 0x72eb3ab2
0,         42,         42,        1,   152064, 0xf463d15f
0,         43,         43,        1,   152064, 0x857d0471
0,         44,         44,        1,   152064, 0x5dda5ede
0,         45,         45,        1,   152064, 0xec33b550
0,         46,         46,        1,   152064, 0x2217b9bb
0,         47,         47,        1,   152064, 0x060b0fa4
0,         48,         48,        1,   152064, 0x5a785b49
0,         49,         49,        1,   152064, 0x6969268b
0,         50,         50,        1,   152064, 0xe145d3a4
0,         51,         51,        1,   152064, 0xb7256e99
0,         52,         52,        1,   152064, 0x5bbebf16
0,         53,         53,        1,   152064, 0x9234b31e
0,         54,         54,        1,   152064, 0x9f0f8c7e
0,         55,         55,        1,   152064, 0x15e271c4
0,         56,         56,        1,   152064, 0xe8110297
0,         57,         57,        1,   152064, 0x1a4364f3
0,         58,         58,        1,   152064, 0xb7b336f8
0,         59,         59,        1,   152064, 0x31657acb
0,         60,         60,        1,   152064, 0xd8e1de00
0,         61,         61,        1,   152064, 0x9a57117a
0,         62,         62,        1,   152064, 0xfb828be8
0,         63,         63,        1,   152064, 0x30bf2ab7
0,         64,         64,        1,   152064, 0xaf840b27
0,         65,         65,        1,   152064, 0x900cbcd4
0,         66,         66,        1,   152064, 0x6439acfc
0,         67,         67,        1,   152064, 0x716036fd
0,         68,         68,        1,   152064, 0xc3d9baa8
0,         69,         69,        1,   152064, 0x455f7d1f
0,         70,         70,        1,   152064, 0x84c10d78
0,         71,         71,        1,   152064, 0x2cd76642
0,         72,         72,        1,   152064, 0x5c746b3a
0,         73,         73,        1,   152064, 0x92e39e7d
0,         74,         74,        1,   152064, 0xae610df8
0,         75,         75,        1,   152064, 0xc8bac3fa
0,         76,         76,        1,   152064, 0x04be8a35
0,         77,         77,        1,   152064, 0xaaf91b17
0,         78,         78,        1,   152064, 0x5afa8764
0,         79,         79,        1,   152064, 0x31828a12
0,         80,         80,        1,   152064, 0xf1bd3da9
0,         81,         81,        1,   152064, 0xbbb2aaef
0,         82,         82,        1,   152064, 0xcf69efa1
0,         83,         83,        1,   152064, 0x54e85e1b
0,         84,         84,        1,   152064, 0x89ff3a1a
0,         85,         85,        1,   152064, 0x86c80511
0,         86,         86,        1,   152064, 0x41c886f2
0,         87,         87,        1,   152064, 0x9f2ebd74
0,         88,         88,        1,   152064, 0x74d3d0e0
0,         89,         89,        1,   152064, 0xc79501cc
0,         90,         90,        1,   152064, 0x123e23e2
0,         91,         91,        1,   152064, 0xb6122ea0
0,         92,         92,        1,   152064, 0x551f95df
0,         93,         93,        1,   152064, 0x0652ac2d
0,         94,         94,        1,   152064, 0x6483a8ad
0,         95,         95,        1,   152064, 0x7f632ae2
0,         96,         96,        1,   152064, 0xae74622f
0,         97,         97,        1,   152064, 0xdd411339
0,         98,         98,        1,   152064, 0xff0e7f69
0,         99,         99,        1,   152064, 0x8b3a5933
